<svg width="854" height="387" viewBox="0 0 854 387" fill="none" xmlns="http://www.w3.org/2000/svg">
<path fill-rule="evenodd" clip-rule="evenodd" d="M0 108L14.2333 96C28.4667 84 56.9333 60 85.4 72C113.867 84 142.333 132 170.8 162C199.267 192 227.733 204 256.2 216C284.667 228 313.133 240 341.6 210C370.067 180 398.533 108 427 120C455.467 132 483.933 228 512.4 228C540.867 228 569.333 132 597.8 90C626.267 48 654.733 60 683.2 108C711.667 156 732 387 768.6 387C797.067 387 825.533 156 839.767 114L854 72V0H839.767C825.533 0 797.067 0 768.6 0C740.133 0 711.667 0 683.2 0C654.733 0 626.267 0 597.8 0C569.333 0 540.867 0 512.4 0C483.933 0 455.467 0 427 0C398.533 0 370.067 0 341.6 0C313.133 0 284.667 0 256.2 0C227.733 0 199.267 0 170.8 0C142.333 0 113.867 0 85.4 0C56.9333 0 28.4667 0 14.2333 0H0V108Z" fill="#FBF3DE"/>
</svg>
