<svg data-v-fde0c5aa="" xmlns="http://www.w3.org/2000/svg" viewBox="0 0 300 300" class="iconAboveSlogan"><!----><defs data-v-fde0c5aa=""><!----></defs><rect data-v-fde0c5aa="" fill="#FEF2E5" x="0" y="0" width="300px" height="300px" class="logo-background-square"></rect><defs data-v-fde0c5aa=""><!----></defs><g data-v-fde0c5aa="" id="6413f501-a5b9-45ca-9326-205e8d7712f8" fill="#361C00" transform="matrix(3.1355524088442825,0,0,3.1355524088442825,19.780511307084748,147.66660211373153)"><path d="M1.20 3.65L1.20 3.65L4.16 3.70L4.16 3.70Q6.45 3.70 7.52 3.53L7.52 3.53L7.52 3.53Q7.67 3.82 7.67 4.20L7.67 4.20L7.67 4.20Q7.67 4.58 7.34 4.88L7.34 4.88L7.34 4.88Q7 5.18 6.52 5.18L6.52 5.18L4.91 5.00L4.91 5.00Q4.91 5.10 4.84 5.87L4.84 5.87L4.84 5.87Q4.65 7.76 4.65 9.66L4.65 9.66L4.65 9.66Q4.65 11.56 4.94 13.47L4.94 13.47L4.94 13.47Q4.48 13.64 3.98 13.64L3.98 13.64L3.98 13.64Q3.47 13.64 3.11 13.35L3.11 13.35L3.11 13.35Q2.74 13.06 2.74 12.48L2.74 12.48L2.74 12.48Q2.74 11.90 2.88 10.43L2.88 10.43L2.88 10.43Q3.02 8.96 3.02 7.57L3.02 7.57L3.02 7.57Q3.02 6.17 2.88 4.97L2.88 4.97L2.88 4.97Q1.19 5.05 0.24 5.45L0.24 5.45L0.24 5.45Q0.07 5.12 0.07 4.73L0.07 4.73L0.07 4.73Q0.07 4.33 0.39 3.99L0.39 3.99L0.39 3.99Q0.71 3.65 1.20 3.65ZM10.51 13.47L10.51 13.47Q10.08 13.64 9.59 13.64L9.59 13.64L9.59 13.64Q9.10 13.64 8.80 13.41L8.80 13.41L8.80 13.41Q8.50 13.17 8.50 12.76L8.50 12.76L8.50 12.76Q8.50 12.35 8.62 11.26L8.62 11.26L8.62 11.26Q8.75 10.16 8.75 9.14L8.75 9.14L8.75 9.14Q8.75 8.11 8.43 6.72L8.43 6.72L8.43 6.72Q8.88 6.55 9.31 6.55L9.31 6.55L9.31 6.55Q9.74 6.55 10.06 6.85L10.06 6.85L10.06 6.85Q10.37 7.14 10.37 7.63L10.37 7.63L10.37 7.63Q10.37 7.88 10.29 8.38L10.29 8.38L10.29 8.38Q10.21 8.88 10.19 9.13L10.19 9.13L10.19 9.13Q10.74 7.88 11.49 7.18L11.49 7.18L11.49 7.18Q12.24 6.47 12.98 6.47L12.98 6.47L12.98 6.47Q13.50 6.47 13.80 6.83L13.80 6.83L13.80 6.83Q14.11 7.20 14.11 7.75L14.11 7.75L14.11 7.75Q14.11 8.30 13.83 8.64L13.83 8.64L13.83 8.64Q13.55 8.99 13.14 8.99L13.14 8.99L13.14 8.99Q12.73 8.99 12.47 8.90L12.47 8.90L12.47 8.90Q12.52 8.74 12.52 8.60L12.52 8.60L12.52 8.60Q12.52 8.02 12.11 8.02L12.11 8.02L12.11 8.02Q11.49 8.02 10.96 9.26L10.96 9.26L10.96 9.26Q10.42 10.50 10.23 11.58L10.23 11.58L10.23 11.58Q10.30 12.63 10.51 13.47L10.51 13.47ZM21.25 7.04L21.25 7.04L21.25 7.04Q20.87 8.65 20.87 10.27L20.87 10.27L20.87 10.27Q20.87 11.89 21.24 13.47L21.24 13.47L21.24 13.47Q20.73 13.64 20.20 13.64L20.20 13.64L20.20 13.64Q19.67 13.64 19.46 13.32L19.46 13.32L19.46 13.32Q19.25 13.01 19.25 12.41L19.25 12.41L19.25 12.41Q19.25 11.82 19.43 10.78L19.43 10.78L19.43 10.78Q18.44 12.91 17.51 13.47L17.51 13.47L17.51 13.47Q17.09 13.72 16.65 13.72L16.65 13.72L16.65 13.72Q15.58 13.72 14.99 12.93L14.99 12.93L14.99 12.93Q14.41 12.14 14.41 10.96L14.41 10.96L14.41 10.96Q14.41 9.17 15.40 7.82L15.40 7.82L15.40 7.82Q16.39 6.47 17.98 6.47L17.98 6.47L17.98 6.47Q19.57 6.47 21.25 7.04ZM19.42 7.88L19.42 7.88L19.42 7.88Q18.68 7.66 18.16 7.66L18.16 7.66L18.16 7.66Q17.11 7.66 16.59 8.12L16.59 8.12L16.59 8.12Q16.11 9.30 16.11 10.51L16.11 10.51L16.11 10.51Q16.11 11.16 16.32 11.82L16.32 11.82L16.32 11.82Q16.52 12.47 16.94 12.47L16.94 12.47L16.94 12.47Q17.43 12.47 18.20 11.03L18.20 11.03L18.20 11.03Q18.97 9.59 19.42 7.88ZM27.96 11.42L27.96 11.42L27.96 11.42Q27.47 12.38 26.73 13.05L26.73 13.05L26.73 13.05Q25.98 13.72 25.24 13.72L25.24 13.72L25.24 13.72Q24.50 13.72 24.10 13.21L24.10 13.21L24.10 13.21Q23.70 12.70 23.53 11.89L23.53 11.89L23.53 11.89Q23.37 11.09 23.23 10.23L23.23 10.23L23.23 10.23Q23.10 9.38 22.78 8.57L22.78 8.57L22.78 8.57Q22.46 7.76 21.90 7.35L21.90 7.35L21.90 7.35Q22.08 7.01 22.44 6.78L22.44 6.78L22.44 6.78Q22.81 6.55 23.23 6.55L23.23 6.55L23.23 6.55Q23.88 6.55 24.29 7.40L24.29 7.40L24.29 7.40Q24.70 8.25 24.82 9.27L24.82 9.27L24.82 9.27Q24.93 10.29 25.08 11.25L25.08 11.25L25.08 11.25Q25.23 12.21 25.42 12.35L25.42 12.35L25.42 12.35Q25.90 12.32 26.26 11.74L26.26 11.74L26.26 11.74Q26.61 11.16 26.78 10.33L26.78 10.33L26.78 10.33Q27.09 8.82 27.09 7.97L27.09 7.97L27.09 7.97Q27.09 7.11 27.01 6.65L27.01 6.65L27.01 6.65Q27.50 6.55 27.85 6.55L27.85 6.55L27.85 6.55Q29.05 6.55 29.05 7.70L29.05 7.70L29.05 7.70Q29.05 8.43 28.75 9.44L28.75 9.44L28.75 9.44Q28.45 10.46 27.96 11.42ZM31.18 10.46L31.18 10.46L31.18 10.46Q31.18 11.47 31.50 12.05L31.50 12.05L31.50 12.05Q31.82 12.63 32.58 12.63L32.58 12.63L32.58 12.63Q33.33 12.63 33.76 12.12L33.76 12.12L33.76 12.12Q34.19 11.61 34.19 10.88L34.19 10.88L34.19 10.88Q34.66 10.88 35.01 11.12L35.01 11.12L35.01 11.12Q35.36 11.35 35.36 11.77L35.36 11.77L35.36 11.77Q35.36 12.64 34.44 13.22L34.44 13.22L34.44 13.22Q33.52 13.80 32.49 13.80L32.49 13.80L32.49 13.80Q30.90 13.80 30.18 12.94L30.18 12.94L30.18 12.94Q29.47 12.08 29.47 10.39L29.47 10.39L29.47 10.39Q29.47 8.69 30.43 7.54L30.43 7.54L30.43 7.54Q31.39 6.38 32.98 6.38L32.98 6.38L32.98 6.38Q34.08 6.38 34.74 6.88L34.74 6.88L34.74 6.88Q35.41 7.38 35.41 8.42L35.41 8.42L35.41 8.42Q35.41 9.46 34.46 9.99L34.46 9.99L34.46 9.99Q33.52 10.51 32.16 10.51L32.16 10.51L32.16 10.51Q31.68 10.51 31.18 10.46ZM31.19 9.35L31.19 9.35L31.19 9.35Q31.61 9.44 32.07 9.44L32.07 9.44L32.07 9.44Q33.08 9.44 33.77 9.06L33.77 9.06L33.77 9.06Q33.85 8.72 33.85 8.53L33.85 8.53L33.85 8.53Q33.85 8.04 33.50 7.78L33.50 7.78L33.50 7.78Q33.15 7.53 32.54 7.53L32.54 7.53L32.54 7.53Q31.93 7.53 31.44 7.92L31.44 7.92L31.44 7.92Q31.19 8.65 31.19 9.35ZM36.88 3.30L36.88 3.30L36.88 3.30Q37.32 3.14 37.80 3.14L37.80 3.14L37.80 3.14Q38.28 3.14 38.59 3.45L38.59 3.45L38.59 3.45Q38.91 3.77 38.91 4.31L38.91 4.31L38.91 4.31Q38.91 4.84 38.76 6.46L38.76 6.46L38.76 6.46Q38.61 8.08 38.61 9.00L38.61 9.00L38.61 9.00Q38.61 11.28 38.93 13.47L38.93 13.47L38.93 13.47Q38.49 13.64 37.98 13.64L37.98 13.64L37.98 13.64Q36.90 13.64 36.90 12.59L36.90 12.59L36.90 12.59Q36.90 12.08 37.06 10.61L37.06 10.61L37.06 10.61Q37.21 9.13 37.21 8.23L37.21 8.23L37.21 8.23Q37.21 5.25 36.88 3.30ZM44.63 4.14L44.63 4.14L44.63 4.14Q46.65 3.61 48.15 3.61L48.15 3.61L48.15 3.61Q51.35 3.61 51.35 5.84L51.35 5.84L51.35 5.84Q51.35 7.20 50.08 7.91L50.08 7.91L50.08 7.91Q50.93 8.12 51.49 8.71L51.49 8.71L51.49 8.71Q52.05 9.31 52.05 10.21L52.05 10.21L52.05 10.21Q52.05 11.89 50.81 12.80L50.81 12.80L50.81 12.80Q49.56 13.72 47.73 13.72L47.73 13.72L47.73 13.72Q45.89 13.72 44.55 12.99L44.55 12.99L44.55 12.99Q44.98 11.48 44.98 8.91L44.98 8.91L44.98 8.91Q44.98 6.34 44.63 4.14ZM46.75 12.21L46.75 12.21L46.75 12.21Q47.36 12.40 47.98 12.40L47.98 12.40L47.98 12.40Q48.94 12.40 49.57 11.92L49.57 11.92L49.57 11.92Q50.20 11.44 50.20 10.56L50.20 10.56L50.20 10.56Q50.20 8.88 48.38 8.88L48.38 8.88L48.38 8.88Q47.52 8.88 46.62 9.24L46.62 9.24L46.62 9.24Q46.62 10.65 46.75 12.21ZM46.61 8.01L46.61 8.01L46.61 8.01Q46.80 7.97 47.19 7.91L47.19 7.91L47.19 7.91Q47.57 7.85 47.78 7.81L47.78 7.81L47.78 7.81Q47.99 7.77 48.31 7.69L48.31 7.69L48.31 7.69Q48.62 7.60 48.80 7.48L48.80 7.48L48.80 7.48Q48.97 7.36 49.15 7.18L49.15 7.18L49.15 7.18Q49.50 6.83 49.50 6.16L49.50 6.16L49.50 6.16Q49.50 4.86 47.95 4.86L47.95 4.86L47.95 4.86Q47.45 4.86 46.72 5.03L46.72 5.03L46.72 5.03Q46.61 7.90 46.61 8.01ZM53.49 12.21L53.49 12.21L53.63 9.30L53.63 9.30Q53.63 7.94 53.24 6.72L53.24 6.72L53.24 6.72Q53.63 6.55 54.21 6.55L54.21 6.55L54.21 6.55Q55.33 6.55 55.33 7.80L55.33 7.80L55.33 7.80Q55.33 8.50 55.17 9.77L55.17 9.77L55.17 9.77Q55.02 11.03 55.02 11.61L55.02 11.61L55.02 11.61Q55.02 12.31 55.65 12.31L55.65 12.31L55.65 12.31Q56.03 12.31 56.54 11.67L56.54 11.67L56.54 11.67Q57.05 11.03 57.42 10.24L57.42 10.24L57.42 10.24Q57.79 9.45 57.86 8.95L57.86 8.95L57.86 8.95Q57.78 7.41 57.62 6.72L57.62 6.72L57.62 6.72Q58.07 6.55 58.54 6.55L58.54 6.55L58.54 6.55Q59.01 6.55 59.32 6.85L59.32 6.85L59.32 6.85Q59.64 7.14 59.64 7.57L59.64 7.57L59.64 7.57Q59.64 8.01 59.51 9.02L59.51 9.02L59.51 9.02Q59.39 10.02 59.39 11.12L59.39 11.12L59.39 11.12Q59.39 12.22 59.64 13.47L59.64 13.47L59.64 13.47Q59.09 13.64 58.66 13.64L58.66 13.64L58.66 13.64Q57.79 13.64 57.79 12.49L57.79 12.49L57.79 12.49Q57.79 11.98 57.90 11.09L57.90 11.09L57.90 11.09Q57.34 12.28 56.54 13.00L56.54 13.00L56.54 13.00Q55.73 13.72 54.91 13.72L54.91 13.72L54.91 13.72Q53.49 13.72 53.49 12.21ZM65.51 3.30L65.51 3.30L65.51 3.30Q65.95 3.14 66.43 3.14L66.43 3.14L66.43 3.14Q66.91 3.14 67.21 3.45L67.21 3.45L67.21 3.45Q67.52 3.77 67.52 4.24L67.52 4.24L67.52 4.24Q67.52 4.70 67.38 6.45L67.38 6.45L67.38 6.45Q67.24 8.19 67.24 9.88L67.24 9.88L67.24 9.88Q67.24 11.56 67.58 13.47L67.58 13.47L67.58 13.47Q67.07 13.64 66.53 13.64L66.53 13.64L66.53 13.64Q65.60 13.64 65.60 12.33L65.60 12.33L65.60 12.33Q65.60 11.90 65.79 10.78L65.79 10.78L65.79 10.78Q65.20 12.03 64.74 12.63L64.74 12.63L64.74 12.63Q64.29 13.23 63.86 13.48L63.86 13.48L63.86 13.48Q63.43 13.72 62.96 13.72L62.96 13.72L62.96 13.72Q61.89 13.72 61.33 12.94L61.33 12.94L61.33 12.94Q60.76 12.15 60.76 11.00L60.76 11.00L60.76 11.00Q60.76 9.86 61.17 8.84L61.17 8.84L61.17 8.84Q61.59 7.83 62.42 7.15L62.42 7.15L62.42 7.15Q63.25 6.47 64.19 6.47L64.19 6.47L64.19 6.47Q65.13 6.47 65.81 6.72L65.81 6.72L65.81 6.72Q65.79 4.91 65.51 3.30ZM65.81 7.91L65.81 7.91L65.81 7.91Q65.13 7.66 64.33 7.66L64.33 7.66L64.33 7.66Q63.53 7.66 62.96 8.12L62.96 8.12L62.96 8.12Q62.48 9.25 62.48 10.65L62.48 10.65L62.48 10.65Q62.48 11.30 62.66 11.89L62.66 11.89L62.66 11.89Q62.85 12.47 63.27 12.47L63.27 12.47L63.27 12.47Q63.91 12.47 64.73 11.03L64.73 11.03L64.73 11.03Q65.55 9.59 65.81 7.91ZM73.32 3.30L73.32 3.30L73.32 3.30Q73.77 3.14 74.24 3.14L74.24 3.14L74.24 3.14Q74.72 3.14 75.03 3.45L75.03 3.45L75.03 3.45Q75.33 3.77 75.33 4.24L75.33 4.24L75.33 4.24Q75.33 4.70 75.19 6.45L75.19 6.45L75.19 6.45Q75.05 8.19 75.05 9.88L75.05 9.88L75.05 9.88Q75.05 11.56 75.39 13.47L75.39 13.47L75.39 13.47Q74.89 13.64 74.34 13.64L74.34 13.64L74.34 13.64Q73.42 13.64 73.42 12.33L73.42 12.33L73.42 12.33Q73.42 11.90 73.60 10.78L73.60 10.78L73.60 10.78Q73.01 12.03 72.56 12.63L72.56 12.63L72.56 12.63Q72.10 13.23 71.67 13.48L71.67 13.48L71.67 13.48Q71.25 13.72 70.77 13.72L70.77 13.72L70.77 13.72Q69.71 13.72 69.14 12.94L69.14 12.94L69.14 12.94Q68.57 12.15 68.57 11.00L68.57 11.00L68.57 11.00Q68.57 9.86 68.98 8.84L68.98 8.84L68.98 8.84Q69.40 7.83 70.23 7.15L70.23 7.15L70.23 7.15Q71.06 6.47 72.00 6.47L72.00 6.47L72.00 6.47Q72.94 6.47 73.63 6.72L73.63 6.72L73.63 6.72Q73.60 4.91 73.32 3.30ZM73.63 7.91L73.63 7.91L73.63 7.91Q72.94 7.66 72.14 7.66L72.14 7.66L72.14 7.66Q71.34 7.66 70.77 8.12L70.77 8.12L70.77 8.12Q70.29 9.25 70.29 10.65L70.29 10.65L70.29 10.65Q70.29 11.30 70.48 11.89L70.48 11.89L70.48 11.89Q70.66 12.47 71.08 12.47L71.08 12.47L71.08 12.47Q71.72 12.47 72.54 11.03L72.54 11.03L72.54 11.03Q73.36 9.59 73.63 7.91ZM76.85 11.31L76.85 11.31L76.99 9.30L76.99 9.30Q76.99 7.94 76.59 6.72L76.59 6.72L76.59 6.72Q76.99 6.55 77.56 6.55L77.56 6.55L77.56 6.55Q78.68 6.55 78.68 7.80L78.68 7.80L78.68 7.80Q78.68 8.36 78.53 9.38L78.53 9.38L78.53 9.38Q78.37 10.40 78.37 10.79L78.37 10.79L78.37 10.79Q78.37 11.17 78.39 11.35L78.39 11.35L78.39 11.35Q78.40 11.52 78.46 11.76L78.46 11.76L78.46 11.76Q78.54 12.24 79.01 12.24L79.01 12.24L79.01 12.24Q79.48 12.24 80.02 11.49L80.02 11.49L80.02 11.49Q80.56 10.74 80.89 9.83L80.89 9.83L80.89 9.83Q81.21 8.92 81.21 8.39L81.21 8.39L81.21 8.39Q81.14 7.28 80.98 6.72L80.98 6.72L80.98 6.72Q81.42 6.55 81.89 6.55L81.89 6.55L81.89 6.55Q82.36 6.55 82.68 6.85L82.68 6.85L82.68 6.85Q82.99 7.14 82.99 7.63L82.99 7.63L82.99 7.63Q82.99 15.27 80.19 16.80L80.19 16.80L80.19 16.80Q79.56 17.14 78.76 17.14L78.76 17.14L78.76 17.14Q77.97 17.14 77.37 16.72L77.37 16.72L77.37 16.72Q76.78 16.30 76.78 15.54L76.78 15.54L76.78 15.54Q76.78 15.04 77.15 14.69L77.15 14.69L77.15 14.69Q77.53 14.35 78.05 14.35L78.05 14.35L78.05 14.35Q78.16 14.35 78.33 14.38L78.33 14.38L78.33 14.38Q78.29 14.56 78.29 14.70L78.29 14.70L78.29 14.70Q78.29 15.93 79.14 15.93L79.14 15.93L79.14 15.93Q79.66 15.93 80.08 15.37L80.08 15.37L80.08 15.37Q80.50 14.81 80.75 14.00L80.75 14.00L80.75 14.00Q81.24 12.35 81.24 11.00L81.24 11.00L81.24 11.00Q80.82 12.14 80.10 12.83L80.10 12.83L80.10 12.83Q79.38 13.52 78.54 13.52L78.54 13.52L78.54 13.52Q76.85 13.52 76.85 11.31Z"></path></g><defs data-v-fde0c5aa=""><linearGradient data-v-fde0c5aa="" gradientTransform="rotate(25)" id="76093307-dd99-48c7-aa1e-ec0ce1c0ceda" x1="0%" y1="0%" x2="100%" y2="0%"><stop data-v-fde0c5aa="" offset="0%" stop-color="#EB4C00" stop-opacity="1"></stop><stop data-v-fde0c5aa="" offset="100%" stop-color="#F2A900" stop-opacity="1"></stop></linearGradient></defs><g data-v-fde0c5aa="" id="2300d1ab-e566-49b0-931c-96752441fc39" stroke="none" fill="url(#76093307-dd99-48c7-aa1e-ec0ce1c0ceda)" transform="matrix(0.8374506832505247,0,0,0.8374506832505247,397.88875020478673,-158.6202062307517)"><path d="M-263.837 339.924c-1.815-1.815-4.061-2.736-6.664-2.736-2.531 0-4.735.921-6.554 2.736-1.819 1.811-2.738 4.012-2.738 6.554 0 2.614.919 4.856 2.738 6.667 1.818 1.811 4.022 2.732 6.554 2.732 2.604 0 4.849-.922 6.664-2.732 1.818-1.811 2.738-4.053 2.738-6.667 0-2.542-.92-4.744-2.738-6.554zm-3.905 9.31c-.77.768-1.687 1.152-2.759 1.152s-1.995-.385-2.762-1.152c-.766-.766-1.146-1.682-1.146-2.757 0-1.065.381-1.99 1.146-2.758.767-.761 1.689-1.152 2.762-1.152s1.989.392 2.759 1.152c.768.768 1.146 1.692 1.146 2.758-.001 1.076-.379 1.992-1.146 2.757zM-320.26 340.088c-1.811-1.774-4.013-2.675-6.547-2.675-2.605 0-4.848.9-6.669 2.675-1.816 1.791-2.74 4.013-2.74 6.61 0 2.536.921 4.744 2.74 6.555 1.816 1.82 4.059 2.747 6.669 2.747 2.534 0 4.741-.927 6.551-2.742 1.816-1.815 2.737-4.018 2.737-6.56 0-2.597-.92-4.825-2.741-6.61zm-3.791 9.385c-.762.766-1.683 1.137-2.755 1.137-1.075 0-1.993-.371-2.759-1.137-.767-.772-1.148-1.688-1.148-2.774 0-1.063.381-1.979 1.148-2.747.766-.766 1.685-1.157 2.759-1.157 1.073 0 1.994.392 2.755 1.157.767.768 1.149 1.684 1.149 2.747 0 1.085-.383 2.001-1.149 2.774z"></path><path d="M-250.958 322.794v-8.57h4.867v-3.273h-33.327v3.273h4.883v8.588l-8.695.005v-19.362h6.184v-10.166h-15.078v10.166h6.183v19.363l-3.212.003v-12.74c-.052-1.138-.463-2.109-1.261-2.908-.854-.864-1.865-1.292-3.035-1.292l-14.178.023c-1.536 0-3.292.771-4.062 2.197l-8.807 13.792h-16.094c-3.681 0-6.665 2.742-6.665 6.133v.982h.015V336.246H-346v5.405c0 1.909.96 2.871 2.876 2.871h2.641c.229-3.215 1.708-5.957 4.424-8.221 2.722-2.252 5.764-3.384 9.136-3.384 3.37 0 6.433 1.132 9.194 3.384 2.757 2.264 4.249 5.006 4.48 8.221h29.189c.227-3.215 1.706-5.979 4.42-8.276 2.723-2.301 5.764-3.442 9.138-3.442 3.371 0 6.433 1.142 9.192 3.442 2.659 2.217 4.128 4.87 4.436 7.938v.365l.008.062h7.941c1.942 0 2.917-.976 2.917-2.915v-18.903l-4.95.001zm-45.535-2.183c0 1.456-.726 2.187-2.187 2.187h-14.075c-.791 0-1.191-.396-1.191-1.184 0-.277.069-.498.198-.693l4.769-8.293c.514-.818 1.178-1.062 2.099-1.062h8.2c1.461 0 2.187.73 2.187 2.184v6.861zm41.572 2.187l-15.651.01v-5.682h15.651v5.672z"></path><path d="M-251.173 300.078c0-1.371-1.128-2.481-2.518-2.481H-254.727l-13.807.001v-6.91c0-1.372-1.127-2.48-2.518-2.48h-1.027c-1.39 0-2.518 1.109-2.518 2.48l.003 18.395h23.433l-.012-9.005z"></path></g><defs data-v-fde0c5aa=""><!----></defs><g data-v-fde0c5aa="" id="d5dd05da-91e5-4cc1-a93e-5e8801bbf47b" fill="#361C00" transform="matrix(0.4903809958331399,0,0,0.4903809958331399,52.31365520930725,209.98786280527676)"><path d="M0.38 5.32C0.38 5.68 0.98 6.57 1.13 6.57C1.37 6.57 1.83 5.95 1.83 5.64C1.83 5.24 1.16 4.87 1.16 4.55C1.16 4.12 2.14 3.33 2.14 3.28C2.14 3.15 1.95 2.98 1.88 2.98C1.74 2.98 0.38 4.30 0.38 5.32ZM2.97 5.32C2.97 5.68 3.57 6.57 3.72 6.57C3.96 6.57 4.42 5.95 4.42 5.64C4.42 5.24 3.75 4.87 3.75 4.55C3.75 4.12 4.73 3.33 4.73 3.28C4.73 3.15 4.54 2.98 4.47 2.98C4.33 2.98 2.97 4.30 2.97 5.32ZM12.61 3.51C12.61 3.75 12.73 3.77 12.89 3.77L13.40 3.77C13.48 3.77 15.62 10.99 15.65 11.07C16.00 12.14 16.11 12.99 16.42 12.99C16.65 12.99 16.74 12.67 17.02 12.26C17.18 12.05 17.28 12.01 17.42 11.66L19.40 6.45C19.47 6.29 19.50 6.20 19.53 6.20C19.56 6.20 19.59 6.29 19.63 6.45C20.23 8.51 20.90 11.03 20.92 11.07C21.27 12.14 21.38 12.99 21.69 12.99C21.91 12.99 22.01 12.67 22.29 12.26C22.44 12.05 22.54 12.01 22.68 11.66L25.77 4.06C25.87 3.81 25.87 3.77 26.24 3.77C26.47 3.77 26.53 3.71 26.53 3.53C26.53 3.32 26.49 3.26 26.29 3.26C26.15 3.26 25.84 3.30 25.34 3.30C24.60 3.30 24.09 3.26 23.90 3.26C23.72 3.26 23.62 3.28 23.62 3.51C23.62 3.75 23.73 3.77 23.90 3.77L24.81 3.77C24.88 3.77 24.89 3.81 24.89 3.95C24.89 4.63 23.30 8.72 22.58 10.63C22.44 10.99 22.37 11.17 22.33 11.17C22.27 11.17 22.22 10.99 22.09 10.60C22.01 10.30 21.08 7.18 20.55 5.22C20.51 5.05 20.30 4.17 20.30 3.85C20.30 3.81 20.30 3.79 20.31 3.77L21.20 3.77C21.38 3.77 21.48 3.75 21.48 3.56C21.48 3.32 21.43 3.26 21.24 3.26C20.92 3.26 19.98 3.30 19.56 3.30C19.14 3.30 18.23 3.26 18.00 3.26C17.82 3.26 17.72 3.28 17.72 3.51C17.72 3.75 17.84 3.77 18.00 3.77L18.80 3.77C18.84 3.77 19.03 4.27 19.18 4.83C19.24 5.05 19.28 5.15 19.28 5.25C19.28 5.31 19.28 5.38 19.24 5.49L17.23 10.60C17.14 10.82 17.11 10.95 17.07 10.95C17.02 10.95 17.00 10.84 16.91 10.60C16.83 10.32 15.82 7.27 15.22 5.22C15.18 5.08 14.85 3.96 14.84 3.85C14.85 3.77 14.90 3.77 14.94 3.77L15.64 3.77C15.86 3.77 15.93 3.75 15.93 3.56C15.93 3.32 15.89 3.26 15.69 3.26C15.37 3.26 14.66 3.30 14.24 3.30C13.82 3.30 13.12 3.26 12.89 3.26C12.71 3.26 12.61 3.28 12.61 3.51ZM33.66 8.15C33.66 11.17 35.99 12.80 38.25 12.80C41.03 12.80 43.01 10.89 43.01 8.06C43.01 5.33 41.26 3.11 38.46 3.11C35.85 3.11 33.66 5.10 33.66 8.15ZM35.06 7.77C35.06 5.64 36.34 3.58 38.32 3.58C40.56 3.58 41.64 5.81 41.64 7.94C41.64 10.08 40.53 12.32 38.26 12.32C36.27 12.32 35.06 10.28 35.06 7.77ZM51.11 3.51C51.11 3.72 51.18 3.79 51.38 3.79L52.19 3.77C52.29 3.77 52.33 6.61 52.33 8.55L52.33 10.42C52.33 11.30 52.32 12.18 52.28 12.18L51.67 12.18C51.45 12.18 51.38 12.19 51.38 12.39C51.38 12.63 51.42 12.68 51.62 12.68C51.74 12.68 52.57 12.64 52.99 12.64C53.41 12.64 54.18 12.68 54.50 12.68C54.67 12.68 54.70 12.61 54.70 12.40C54.70 12.24 54.67 12.18 54.50 12.18L53.69 12.18C53.62 12.18 53.54 9.18 53.54 8.37C53.54 8.30 53.54 8.26 53.65 8.26C54.04 8.26 54.64 8.27 54.94 8.27C57.18 8.32 57.32 10.00 57.32 11.68L57.32 12.49C57.32 12.61 57.37 12.64 57.47 12.64C57.47 12.64 58.91 12.68 59.39 12.68C59.56 12.68 59.61 12.64 59.61 12.53C59.61 12.24 59.56 12.18 59.40 12.18L58.76 12.18C58.66 12.18 58.63 12.14 58.60 11.31C58.52 8.99 57.15 8.34 56.24 8.05C56.10 8.01 56.13 8.01 56.24 7.95C56.83 7.69 58.14 6.94 58.14 5.63C58.14 3.63 56.45 3.21 55.05 3.21C54.73 3.21 53.44 3.29 53.02 3.29C52.60 3.29 51.62 3.26 51.39 3.26C51.21 3.26 51.11 3.28 51.11 3.51ZM53.54 7.80L53.54 4.40C53.54 4.05 53.56 3.68 53.61 3.68C53.82 3.65 54.10 3.65 54.32 3.65C55.62 3.65 56.87 4.47 56.87 5.82C56.87 6.99 56.32 7.57 55.66 7.88C55.62 7.90 55.58 7.90 55.51 7.90C55.03 7.88 54.32 7.88 53.72 7.87C53.55 7.87 53.54 7.85 53.54 7.80ZM67.09 12.39C67.09 12.63 67.10 12.68 67.30 12.68C67.62 12.68 68.52 12.64 68.94 12.64C69.36 12.64 70.31 12.68 70.63 12.68C70.80 12.68 70.81 12.61 70.81 12.40C70.81 12.24 70.78 12.18 70.62 12.18L69.61 12.18C69.51 12.18 69.48 10.12 69.48 8.46C69.48 8.30 69.48 8.30 69.65 8.30L69.92 8.30C70.13 8.30 70.13 8.32 70.20 8.40L73.23 12.00C73.33 12.11 73.40 12.18 73.19 12.18L72.73 12.18C72.55 12.18 72.48 12.19 72.48 12.39C72.48 12.63 72.48 12.68 72.67 12.68C73.00 12.68 73.70 12.64 74.12 12.64C74.54 12.64 75.22 12.68 75.54 12.68C75.71 12.68 75.71 12.61 75.71 12.40C75.71 12.24 75.71 12.18 75.54 12.18L75.32 12.18C75.14 12.18 75.04 12.10 74.91 11.96L71.15 7.62C71.01 7.45 70.98 7.50 71.11 7.36C71.55 6.83 74.09 3.77 74.16 3.77L74.83 3.77C75.05 3.77 75.08 3.75 75.08 3.56C75.08 3.32 75.08 3.26 74.89 3.26C74.69 3.26 74.24 3.30 73.72 3.30C73.19 3.30 72.72 3.26 72.49 3.26C72.31 3.26 72.21 3.28 72.21 3.51C72.21 3.75 72.32 3.77 72.49 3.77L73.05 3.77C73.22 3.77 73.22 3.84 73.11 3.99C72.58 4.66 70.22 7.92 69.93 7.92L69.62 7.92C69.48 7.92 69.48 7.88 69.48 7.69L69.48 5.94C69.48 5.21 69.55 3.77 69.65 3.77L70.42 3.77C70.64 3.77 70.69 3.75 70.69 3.56C70.69 3.32 70.67 3.26 70.48 3.26C70.15 3.26 69.38 3.30 68.96 3.30C68.38 3.30 67.72 3.26 67.49 3.26C67.31 3.26 67.21 3.28 67.21 3.51C67.21 3.75 67.33 3.77 67.49 3.77L68.14 3.77C68.19 3.77 68.22 4.86 68.22 5.78L68.22 9.84C68.22 11.00 68.21 12.18 68.12 12.18L67.38 12.18C67.16 12.18 67.09 12.19 67.09 12.39ZM83.19 14.55C83.19 14.64 83.26 14.83 83.38 14.83C83.55 14.83 84.99 13.45 84.99 12.25C84.99 11.86 84.21 11.33 83.96 11.33C83.86 11.33 83.24 11.66 83.24 11.93C83.24 12.21 84.17 12.45 84.17 13.08C84.17 13.78 83.19 14.42 83.19 14.55ZM102.56 5.01C102.56 5.17 102.75 5.17 102.87 5.17C103.03 5.17 103.07 5.15 103.08 4.97L103.19 3.89C103.21 3.81 103.75 3.75 104.51 3.75L106.50 3.75C106.55 3.75 106.58 4.35 106.58 4.97C106.58 6.43 106.53 12.18 106.40 12.18L105.53 12.18C105.31 12.18 105.27 12.19 105.27 12.39C105.27 12.63 105.28 12.68 105.48 12.68C105.80 12.68 106.78 12.64 107.20 12.64C107.62 12.64 108.56 12.68 108.88 12.68C109.05 12.68 109.07 12.61 109.07 12.40C109.07 12.24 109.05 12.18 108.88 12.18L107.88 12.18C107.86 12.18 107.86 11.76 107.86 11.31C107.86 9.56 107.94 5.96 107.94 5.92C107.95 5.18 107.95 3.75 108.05 3.75L109.66 3.75C110.38 3.75 111.20 3.78 111.20 3.85C111.20 3.99 111.16 4.90 111.16 4.97C111.16 5.12 111.23 5.17 111.41 5.17C111.61 5.17 111.68 5.17 111.68 5.03C111.68 3.93 111.73 3.40 111.73 3.14C111.73 2.94 111.65 2.94 111.45 2.94C111.30 2.94 111.24 2.98 111.23 3.16C111.23 3.23 110.59 3.28 109.75 3.28L104.75 3.28C104.09 3.28 103.28 3.28 103.28 3.21L103.28 3.07C103.28 2.94 103.15 2.94 103.05 2.94C102.83 2.94 102.80 3.00 102.79 3.19C102.73 3.89 102.56 4.97 102.56 5.01ZM119.49 3.51C119.49 3.72 119.56 3.79 119.76 3.79L120.57 3.77C120.67 3.77 120.71 6.61 120.71 8.55L120.71 10.42C120.71 11.30 120.69 12.18 120.65 12.18L120.05 12.18C119.83 12.18 119.76 12.19 119.76 12.39C119.76 12.63 119.80 12.68 119.99 12.68C120.12 12.68 120.95 12.64 121.37 12.64C121.79 12.64 122.56 12.68 122.88 12.68C123.05 12.68 123.07 12.61 123.07 12.40C123.07 12.24 123.05 12.18 122.88 12.18L122.07 12.18C122.00 12.18 121.91 9.18 121.91 8.37C121.91 8.30 121.91 8.26 122.02 8.26C122.42 8.26 123.02 8.27 123.31 8.27C125.55 8.32 125.69 10.00 125.69 11.68L125.69 12.49C125.69 12.61 125.75 12.64 125.85 12.64C125.85 12.64 127.29 12.68 127.76 12.68C127.93 12.68 127.99 12.64 127.99 12.53C127.99 12.24 127.93 12.18 127.78 12.18L127.13 12.18C127.04 12.18 127.01 12.14 126.98 11.31C126.90 8.99 125.52 8.34 124.61 8.05C124.47 8.01 124.50 8.01 124.61 7.95C125.20 7.69 126.52 6.94 126.52 5.63C126.52 3.63 124.82 3.21 123.42 3.21C123.10 3.21 121.81 3.29 121.39 3.29C120.97 3.29 119.99 3.26 119.77 3.26C119.59 3.26 119.49 3.28 119.49 3.51ZM121.91 7.80L121.91 4.40C121.91 4.05 121.94 3.68 121.98 3.68C122.19 3.65 122.47 3.65 122.70 3.65C124.00 3.65 125.24 4.47 125.24 5.82C125.24 6.99 124.70 7.57 124.04 7.88C124.00 7.90 123.96 7.90 123.89 7.90C123.41 7.88 122.70 7.88 122.09 7.87C121.93 7.87 121.91 7.85 121.91 7.80ZM135.32 12.39C135.32 12.63 135.32 12.68 135.52 12.68C135.69 12.68 136.01 12.64 136.58 12.64C137.20 12.64 137.75 12.68 137.90 12.68C138.07 12.68 138.07 12.61 138.07 12.40C138.07 12.24 138.07 12.18 137.90 12.18L136.82 12.18C136.82 12.18 136.81 12.18 136.81 12.17C136.82 11.87 137.59 9.90 137.94 9.02C138.01 8.83 138.03 8.79 138.24 8.79L141.06 8.79C141.20 8.79 141.20 8.81 141.27 9.03C141.54 9.77 142.25 11.89 142.25 12.17C142.25 12.18 142.24 12.18 142.24 12.18L141.47 12.18C141.25 12.18 141.23 12.19 141.23 12.39C141.23 12.63 141.25 12.68 141.41 12.68C141.74 12.68 142.60 12.64 143.02 12.64C143.44 12.64 144.12 12.68 144.33 12.68C144.47 12.68 144.48 12.61 144.48 12.40C144.48 12.24 144.47 12.18 144.33 12.18L143.84 12.18C143.74 12.18 142.72 9.34 142.16 7.78L140.48 3.07C140.46 3.00 140.39 2.94 140.31 2.94C140.18 2.94 140.08 3.16 140.00 3.35C139.85 3.71 139.61 3.84 139.50 4.13L138.01 7.57C137.83 8.01 136.12 12.18 136.00 12.18L135.58 12.18C135.35 12.18 135.32 12.19 135.32 12.39ZM138.22 8.33C138.22 8.30 138.25 8.23 138.29 8.13L139.66 4.77C139.71 4.66 139.73 4.61 139.76 4.61C139.78 4.61 139.79 4.63 139.83 4.77L140.99 8.18C141.02 8.25 141.04 8.29 141.04 8.32C141.04 8.36 141.01 8.37 140.91 8.37L138.40 8.37C138.22 8.37 138.22 8.34 138.22 8.33ZM150.56 3.51C150.56 3.75 150.65 3.77 150.82 3.77L151.26 3.77C151.34 3.77 154.13 10.99 154.17 11.07C154.66 12.18 154.76 12.99 154.97 12.99C155.23 12.99 155.29 12.67 155.57 12.26C155.72 12.04 155.81 12.01 155.96 11.66L159.19 4.06C159.31 3.81 159.29 3.77 159.66 3.77C159.88 3.77 159.95 3.75 159.95 3.56C159.95 3.32 159.91 3.26 159.71 3.26C159.57 3.26 159.04 3.30 158.62 3.30C158.20 3.30 157.37 3.26 157.15 3.26C156.95 3.26 156.90 3.29 156.90 3.51C156.90 3.75 157.02 3.77 157.19 3.77L158.19 3.77C158.26 3.77 158.27 3.81 158.27 3.95C158.27 4.63 156.59 8.72 155.86 10.63C155.72 10.99 155.64 11.17 155.60 11.17C155.55 11.17 155.46 10.98 155.32 10.60C154.74 9.10 153.61 6.01 153.09 4.49C153.01 4.27 152.92 3.93 152.92 3.79L152.92 3.77L153.90 3.77C154.13 3.77 154.20 3.75 154.20 3.56C154.20 3.32 154.15 3.26 153.96 3.26C153.64 3.26 152.56 3.30 152.14 3.30C151.72 3.30 151.00 3.26 150.82 3.26C150.64 3.26 150.56 3.28 150.56 3.51ZM167.57 12.39C167.57 12.63 167.59 12.68 167.79 12.68C168.11 12.68 169.08 12.64 169.50 12.64C169.92 12.64 174.43 12.68 174.75 12.68C174.87 12.68 175.03 12.66 175.03 12.49C175.03 12.07 175.07 11.23 175.07 10.53C175.07 10.39 174.92 10.39 174.79 10.39C174.68 10.39 174.55 10.39 174.55 10.51C174.54 11.06 174.54 11.41 174.51 11.76C174.48 12.01 174.48 12.04 174.38 12.04C174.23 12.04 171.60 12.08 170.10 12.08C170.03 12.08 169.99 10.11 169.95 8.26C169.95 8.06 169.99 8.09 170.13 8.09L172.41 8.09C173.11 8.09 173.14 8.20 173.14 8.30L173.14 9.00C173.14 9.14 173.32 9.14 173.43 9.14C173.53 9.14 173.66 9.13 173.66 9.02C173.66 8.83 173.63 8.33 173.63 7.83C173.63 7.32 173.66 6.83 173.66 6.71C173.66 6.59 173.52 6.58 173.42 6.58C173.31 6.58 173.14 6.59 173.14 6.72L173.14 7.45C173.14 7.62 172.69 7.63 172.41 7.63L170.07 7.63C169.96 7.63 169.95 7.63 169.95 7.45C169.93 6.75 169.92 6.06 169.92 5.46C169.92 5.12 169.92 3.71 170.00 3.71C171.23 3.71 173.74 3.75 173.74 3.81C173.74 3.99 173.70 4.83 173.70 4.89C173.70 5.04 173.77 5.10 173.95 5.10C174.15 5.10 174.22 5.08 174.22 4.94C174.22 3.85 174.27 3.36 174.27 3.09C174.27 2.91 174.19 2.90 173.99 2.90C173.80 2.90 173.80 2.95 173.77 3.11C173.75 3.25 173.82 3.25 172.91 3.25C172.30 3.25 170.16 3.29 169.39 3.29C168.90 3.29 167.96 3.25 167.86 3.25C167.73 3.25 167.68 3.30 167.68 3.49C167.68 3.72 167.75 3.74 167.92 3.74L168.57 3.74C168.63 3.74 168.70 4.79 168.70 5.71C168.70 5.80 168.76 8.27 168.76 9.83L168.76 11.17C168.76 11.84 168.73 12.18 168.70 12.18L167.85 12.18C167.62 12.18 167.57 12.21 167.57 12.39ZM183.04 12.39C183.04 12.63 183.06 12.68 183.26 12.68C183.58 12.68 184.55 12.64 184.97 12.64C185.39 12.64 189.74 12.68 190.06 12.68C190.33 12.68 190.40 12.66 190.41 12.49C190.47 12.08 190.71 10.72 190.71 10.60C190.71 10.47 190.55 10.44 190.39 10.43C190.29 10.42 190.20 10.46 190.19 10.56L190.02 11.76C189.98 12.05 189.97 12.03 189.74 12.04C189.59 12.05 187.08 12.12 185.65 12.12C185.61 12.12 185.57 11.38 185.57 10.54L185.57 6.66C185.57 5.40 185.58 3.70 185.68 3.70L186.66 3.70C186.90 3.70 186.93 3.63 186.93 3.44C186.93 3.23 186.91 3.19 186.68 3.19C186.35 3.19 185.42 3.23 185.00 3.23C184.58 3.23 183.64 3.19 183.41 3.19C183.19 3.19 183.13 3.22 183.13 3.44C183.13 3.65 183.18 3.70 183.37 3.70L184.20 3.70C184.24 3.70 184.27 4.23 184.27 4.90L184.27 8.13C184.27 10.07 184.24 12.18 184.16 12.18L183.32 12.18C183.09 12.18 183.04 12.21 183.04 12.39ZM198.32 14.55C198.32 14.64 198.39 14.83 198.52 14.83C198.69 14.83 200.13 13.45 200.13 12.25C200.13 11.86 199.35 11.33 199.09 11.33C199.00 11.33 198.38 11.66 198.38 11.93C198.38 12.21 199.30 12.45 199.30 13.08C199.30 13.78 198.32 14.42 198.32 14.55ZM218.18 5.77C218.18 9.07 223.16 8.20 223.16 10.65C223.16 11.59 222.32 12.31 221.34 12.31C220.51 12.31 218.92 11.83 218.89 11.47L218.81 10.15C218.79 9.97 218.72 9.91 218.54 9.91L218.47 9.91C218.26 9.91 218.26 10.00 218.26 10.12C218.26 10.32 218.37 11.66 218.40 12.17C218.41 12.38 219.67 12.85 221.21 12.85C222.78 12.85 224.39 11.87 224.39 10.11C224.39 6.79 219.42 7.87 219.42 5.32C219.42 4.31 220.21 3.56 221.24 3.56C222.26 3.56 223.36 4.58 223.36 4.89C223.36 5.01 223.31 5.73 223.31 5.78C223.31 5.92 223.36 5.99 223.62 5.99C223.86 5.99 223.87 5.94 223.87 5.75C223.87 5.04 223.96 3.68 223.96 3.53C223.96 3.30 223.92 3.29 223.65 3.29C223.43 3.29 223.41 3.32 223.40 3.53C223.40 3.61 223.38 3.78 223.34 3.78C223.29 3.78 223.20 3.74 223.13 3.68C222.33 3.14 221.72 3.08 221.21 3.08C219.69 3.08 218.18 4.17 218.18 5.77ZM232.22 12.39C232.22 12.63 232.22 12.68 232.41 12.68C232.58 12.68 232.90 12.64 233.48 12.64C234.09 12.64 234.64 12.68 234.79 12.68C234.96 12.68 234.96 12.61 234.96 12.40C234.96 12.24 234.96 12.18 234.79 12.18L233.72 12.18C233.72 12.18 233.70 12.18 233.70 12.17C233.72 11.87 234.49 9.90 234.84 9.02C234.91 8.83 234.92 8.79 235.13 8.79L237.96 8.79C238.10 8.79 238.10 8.81 238.17 9.03C238.43 9.77 239.15 11.89 239.15 12.17C239.15 12.18 239.13 12.18 239.13 12.18L238.36 12.18C238.14 12.18 238.13 12.19 238.13 12.39C238.13 12.63 238.14 12.68 238.31 12.68C238.63 12.68 239.50 12.64 239.92 12.64C240.34 12.64 241.01 12.68 241.22 12.68C241.36 12.68 241.37 12.61 241.37 12.40C241.37 12.24 241.36 12.18 241.22 12.18L240.73 12.18C240.63 12.18 239.61 9.34 239.05 7.78L237.37 3.07C237.36 3.00 237.29 2.94 237.20 2.94C237.08 2.94 236.98 3.16 236.89 3.35C236.74 3.71 236.50 3.84 236.39 4.13L234.91 7.57C234.72 8.01 233.02 12.18 232.89 12.18L232.47 12.18C232.25 12.18 232.22 12.19 232.22 12.39ZM235.12 8.33C235.12 8.30 235.14 8.23 235.19 8.13L236.56 4.77C236.60 4.66 236.63 4.61 236.66 4.61C236.67 4.61 236.68 4.63 236.73 4.77L237.89 8.18C237.92 8.25 237.93 8.29 237.93 8.32C237.93 8.36 237.90 8.37 237.80 8.37L235.30 8.37C235.12 8.37 235.12 8.34 235.12 8.33ZM247.45 3.51C247.45 3.75 247.55 3.77 247.72 3.77L248.15 3.77C248.23 3.77 251.02 10.99 251.06 11.07C251.55 12.18 251.65 12.99 251.86 12.99C252.13 12.99 252.18 12.67 252.46 12.26C252.62 12.04 252.70 12.01 252.85 11.66L256.09 4.06C256.20 3.81 256.19 3.77 256.55 3.77C256.77 3.77 256.84 3.75 256.84 3.56C256.84 3.32 256.80 3.26 256.61 3.26C256.47 3.26 255.93 3.30 255.51 3.30C255.09 3.30 254.27 3.26 254.04 3.26C253.85 3.26 253.79 3.29 253.79 3.51C253.79 3.75 253.92 3.77 254.09 3.77L255.08 3.77C255.15 3.77 255.16 3.81 255.16 3.95C255.16 4.63 253.48 8.72 252.76 10.63C252.62 10.99 252.53 11.17 252.49 11.17C252.45 11.17 252.35 10.98 252.21 10.60C251.64 9.10 250.50 6.01 249.98 4.49C249.90 4.27 249.82 3.93 249.82 3.79L249.82 3.77L250.80 3.77C251.02 3.77 251.09 3.75 251.09 3.56C251.09 3.32 251.05 3.26 250.85 3.26C250.53 3.26 249.45 3.30 249.03 3.30C248.61 3.30 247.90 3.26 247.72 3.26C247.53 3.26 247.45 3.28 247.45 3.51ZM264.46 12.39C264.46 12.63 264.49 12.68 264.68 12.68C265.01 12.68 265.97 12.64 266.39 12.64C266.81 12.64 271.32 12.68 271.64 12.68C271.77 12.68 271.92 12.66 271.92 12.49C271.92 12.07 271.96 11.23 271.96 10.53C271.96 10.39 271.81 10.39 271.68 10.39C271.57 10.39 271.45 10.39 271.45 10.51C271.43 11.06 271.43 11.41 271.40 11.76C271.38 12.01 271.38 12.04 271.28 12.04C271.12 12.04 268.49 12.08 266.99 12.08C266.92 12.08 266.88 10.11 266.84 8.26C266.84 8.06 266.88 8.09 267.02 8.09L269.30 8.09C270.00 8.09 270.03 8.20 270.03 8.30L270.03 9.00C270.03 9.14 270.21 9.14 270.33 9.14C270.42 9.14 270.55 9.13 270.55 9.02C270.55 8.83 270.52 8.33 270.52 7.83C270.52 7.32 270.55 6.83 270.55 6.71C270.55 6.59 270.41 6.58 270.31 6.58C270.20 6.58 270.03 6.59 270.03 6.72L270.03 7.45C270.03 7.62 269.58 7.63 269.30 7.63L266.97 7.63C266.85 7.63 266.84 7.63 266.84 7.45C266.83 6.75 266.81 6.06 266.81 5.46C266.81 5.12 266.81 3.71 266.90 3.71C268.13 3.71 270.63 3.75 270.63 3.81C270.63 3.99 270.59 4.83 270.59 4.89C270.59 5.04 270.66 5.10 270.84 5.10C271.04 5.10 271.11 5.08 271.11 4.94C271.11 3.85 271.17 3.36 271.17 3.09C271.17 2.91 271.08 2.90 270.89 2.90C270.69 2.90 270.69 2.95 270.66 3.11C270.65 3.25 270.72 3.25 269.81 3.25C269.19 3.25 267.05 3.29 266.28 3.29C265.79 3.29 264.85 3.25 264.75 3.25C264.63 3.25 264.57 3.30 264.57 3.49C264.57 3.72 264.64 3.74 264.81 3.74L265.47 3.74C265.52 3.74 265.59 4.79 265.59 5.71C265.59 5.80 265.65 8.27 265.65 9.83L265.65 11.17C265.65 11.84 265.62 12.18 265.59 12.18L264.74 12.18C264.52 12.18 264.46 12.21 264.46 12.39ZM279.93 14.55C279.93 14.64 280.00 14.83 280.13 14.83C280.29 14.83 281.74 13.45 281.74 12.25C281.74 11.86 280.95 11.33 280.70 11.33C280.60 11.33 279.99 11.66 279.99 11.93C279.99 12.21 280.91 12.45 280.91 13.08C280.91 13.78 279.93 14.42 279.93 14.55ZM299.57 3.51C299.57 3.72 299.64 3.79 299.84 3.79L300.65 3.77C300.75 3.77 300.79 6.61 300.79 8.55L300.79 10.42C300.79 11.30 300.78 12.18 300.73 12.18L300.13 12.18C299.91 12.18 299.84 12.19 299.84 12.39C299.84 12.63 299.88 12.68 300.08 12.68C300.20 12.68 301.03 12.64 301.45 12.64C301.87 12.64 302.64 12.68 302.96 12.68C303.13 12.68 303.16 12.61 303.16 12.40C303.16 12.24 303.13 12.18 302.96 12.18L302.15 12.18C302.08 12.18 301.99 9.18 301.99 8.37C301.99 8.30 301.99 8.26 302.11 8.26C302.50 8.26 303.10 8.27 303.39 8.27C305.63 8.32 305.77 10.00 305.77 11.68L305.77 12.49C305.77 12.61 305.83 12.64 305.93 12.64C305.93 12.64 307.37 12.68 307.85 12.68C308.01 12.68 308.07 12.64 308.07 12.53C308.07 12.24 308.01 12.18 307.86 12.18L307.22 12.18C307.12 12.18 307.09 12.14 307.06 11.31C306.98 8.99 305.61 8.34 304.70 8.05C304.56 8.01 304.58 8.01 304.70 7.95C305.28 7.69 306.60 6.94 306.60 5.63C306.60 3.63 304.91 3.21 303.51 3.21C303.18 3.21 301.90 3.29 301.48 3.29C301.06 3.29 300.08 3.26 299.85 3.26C299.67 3.26 299.57 3.28 299.57 3.51ZM301.99 7.80L301.99 4.40C301.99 4.05 302.02 3.68 302.06 3.68C302.27 3.65 302.55 3.65 302.78 3.65C304.08 3.65 305.33 4.47 305.33 5.82C305.33 6.99 304.78 7.57 304.12 7.88C304.08 7.90 304.04 7.90 303.97 7.90C303.49 7.88 302.78 7.88 302.18 7.87C302.01 7.87 301.99 7.85 301.99 7.80ZM315.55 12.39C315.55 12.63 315.57 12.68 315.77 12.68C316.09 12.68 317.06 12.64 317.48 12.64C317.90 12.64 322.41 12.68 322.73 12.68C322.85 12.68 323.01 12.66 323.01 12.49C323.01 12.07 323.05 11.23 323.05 10.53C323.05 10.39 322.90 10.39 322.77 10.39C322.66 10.39 322.53 10.39 322.53 10.51C322.52 11.06 322.52 11.41 322.49 11.76C322.46 12.01 322.46 12.04 322.36 12.04C322.21 12.04 319.58 12.08 318.08 12.08C318.01 12.08 317.97 10.11 317.93 8.26C317.93 8.06 317.97 8.09 318.11 8.09L320.39 8.09C321.09 8.09 321.12 8.20 321.12 8.30L321.12 9.00C321.12 9.14 321.30 9.14 321.41 9.14C321.51 9.14 321.64 9.13 321.64 9.02C321.64 8.83 321.61 8.33 321.61 7.83C321.61 7.32 321.64 6.83 321.64 6.71C321.64 6.59 321.50 6.58 321.40 6.58C321.29 6.58 321.12 6.59 321.12 6.72L321.12 7.45C321.12 7.62 320.67 7.63 320.39 7.63L318.05 7.63C317.94 7.63 317.93 7.63 317.93 7.45C317.91 6.75 317.90 6.06 317.90 5.46C317.90 5.12 317.90 3.71 317.98 3.71C319.21 3.71 321.72 3.75 321.72 3.81C321.72 3.99 321.68 4.83 321.68 4.89C321.68 5.04 321.75 5.10 321.93 5.10C322.13 5.10 322.20 5.08 322.20 4.94C322.20 3.85 322.25 3.36 322.25 3.09C322.25 2.91 322.17 2.90 321.97 2.90C321.78 2.90 321.78 2.95 321.75 3.11C321.73 3.25 321.80 3.25 320.89 3.25C320.28 3.25 318.14 3.29 317.37 3.29C316.88 3.29 315.94 3.25 315.84 3.25C315.71 3.25 315.66 3.30 315.66 3.49C315.66 3.72 315.73 3.74 315.90 3.74L316.55 3.74C316.61 3.74 316.68 4.79 316.68 5.71C316.68 5.80 316.74 8.27 316.74 9.83L316.74 11.17C316.74 11.84 316.71 12.18 316.68 12.18L315.83 12.18C315.60 12.18 315.55 12.21 315.55 12.39ZM331.02 3.51C331.02 3.75 331.06 3.79 331.27 3.79L332.19 3.77C332.25 3.77 332.25 4.47 332.25 5.24L332.25 5.96C332.25 7.70 332.23 12.18 332.12 12.18L331.45 12.18C331.23 12.18 331.16 12.19 331.16 12.39C331.16 12.63 331.17 12.68 331.37 12.68C331.49 12.68 332.47 12.64 332.89 12.64C333.31 12.64 334.18 12.68 334.50 12.68C334.67 12.68 334.70 12.61 334.70 12.40C334.70 12.24 334.67 12.18 334.50 12.18L333.51 12.18C333.47 12.18 333.45 10.60 333.45 9.58L333.45 8.65C333.45 8.57 333.45 8.54 333.55 8.54C333.94 8.54 334.26 8.58 334.77 8.58C336.76 8.58 338.16 7.83 338.16 6.01C338.16 4.09 336.67 3.22 334.75 3.22C334.43 3.22 333.34 3.29 332.92 3.29C332.68 3.29 331.49 3.26 331.27 3.26C331.09 3.26 331.02 3.28 331.02 3.51ZM333.47 8.05L333.47 4.40C333.47 4.05 333.48 3.70 333.52 3.68C333.65 3.67 333.82 3.67 333.96 3.67C335.61 3.67 336.87 4.47 336.87 5.80C336.87 7.57 335.54 8.19 333.96 8.19C333.70 8.19 333.47 8.16 333.47 8.05ZM345.91 12.39C345.91 12.63 345.94 12.68 346.14 12.68C346.46 12.68 347.42 12.64 347.84 12.64C348.26 12.64 352.77 12.68 353.09 12.68C353.22 12.68 353.37 12.66 353.37 12.49C353.37 12.07 353.42 11.23 353.42 10.53C353.42 10.39 353.26 10.39 353.14 10.39C353.02 10.39 352.90 10.39 352.90 10.51C352.88 11.06 352.88 11.41 352.86 11.76C352.83 12.01 352.83 12.04 352.73 12.04C352.58 12.04 349.94 12.08 348.45 12.08C348.38 12.08 348.33 10.11 348.29 8.26C348.29 8.06 348.33 8.09 348.47 8.09L350.76 8.09C351.46 8.09 351.48 8.20 351.48 8.30L351.48 9.00C351.48 9.14 351.67 9.14 351.78 9.14C351.88 9.14 352.00 9.13 352.00 9.02C352.00 8.83 351.97 8.33 351.97 7.83C351.97 7.32 352.00 6.83 352.00 6.71C352.00 6.59 351.86 6.58 351.76 6.58C351.65 6.58 351.48 6.59 351.48 6.72L351.48 7.45C351.48 7.62 351.04 7.63 350.76 7.63L348.42 7.63C348.31 7.63 348.29 7.63 348.29 7.45C348.28 6.75 348.26 6.06 348.26 5.46C348.26 5.12 348.26 3.71 348.35 3.71C349.58 3.71 352.09 3.75 352.09 3.81C352.09 3.99 352.04 4.83 352.04 4.89C352.04 5.04 352.11 5.10 352.30 5.10C352.49 5.10 352.56 5.08 352.56 4.94C352.56 3.85 352.62 3.36 352.62 3.09C352.62 2.91 352.53 2.90 352.34 2.90C352.14 2.90 352.14 2.95 352.11 3.11C352.10 3.25 352.17 3.25 351.26 3.25C350.64 3.25 348.50 3.29 347.73 3.29C347.24 3.29 346.30 3.25 346.21 3.25C346.08 3.25 346.02 3.30 346.02 3.49C346.02 3.72 346.09 3.74 346.26 3.74L346.92 3.74C346.98 3.74 347.05 4.79 347.05 5.71C347.05 5.80 347.10 8.27 347.10 9.83L347.10 11.17C347.10 11.84 347.07 12.18 347.05 12.18L346.19 12.18C345.97 12.18 345.91 12.21 345.91 12.39ZM361.24 12.39C361.24 12.63 361.24 12.68 361.44 12.68C361.61 12.68 361.93 12.64 362.50 12.64C363.12 12.64 363.66 12.68 363.82 12.68C363.99 12.68 363.99 12.61 363.99 12.40C363.99 12.24 363.99 12.18 363.82 12.18L362.74 12.18C362.74 12.18 362.73 12.18 362.73 12.17C362.74 11.87 363.51 9.90 363.86 9.02C363.93 8.83 363.94 8.79 364.15 8.79L366.98 8.79C367.12 8.79 367.12 8.81 367.19 9.03C367.46 9.77 368.17 11.89 368.17 12.17C368.17 12.18 368.16 12.18 368.16 12.18L367.39 12.18C367.16 12.18 367.15 12.19 367.15 12.39C367.15 12.63 367.16 12.68 367.33 12.68C367.65 12.68 368.52 12.64 368.94 12.64C369.36 12.64 370.03 12.68 370.24 12.68C370.38 12.68 370.40 12.61 370.40 12.40C370.40 12.24 370.38 12.18 370.24 12.18L369.75 12.18C369.66 12.18 368.63 9.34 368.07 7.78L366.39 3.07C366.38 3.00 366.31 2.94 366.23 2.94C366.10 2.94 366.00 3.16 365.92 3.35C365.76 3.71 365.53 3.84 365.41 4.13L363.93 7.57C363.75 8.01 362.04 12.18 361.91 12.18L361.49 12.18C361.27 12.18 361.24 12.19 361.24 12.39ZM364.14 8.33C364.14 8.30 364.17 8.23 364.21 8.13L365.58 4.77C365.62 4.66 365.65 4.61 365.68 4.61C365.69 4.61 365.71 4.63 365.75 4.77L366.91 8.18C366.94 8.25 366.95 8.29 366.95 8.32C366.95 8.36 366.93 8.37 366.83 8.37L364.32 8.37C364.14 8.37 364.14 8.34 364.14 8.33ZM376.49 5.01C376.49 5.17 376.67 5.17 376.80 5.17C376.95 5.17 376.99 5.15 377.01 4.97L377.12 3.89C377.13 3.81 377.68 3.75 378.43 3.75L380.42 3.75C380.48 3.75 380.51 4.35 380.51 4.97C380.51 6.43 380.45 12.18 380.32 12.18L379.46 12.18C379.23 12.18 379.19 12.19 379.19 12.39C379.19 12.63 379.20 12.68 379.40 12.68C379.72 12.68 380.70 12.64 381.12 12.64C381.54 12.64 382.48 12.68 382.80 12.68C382.97 12.68 383.00 12.61 383.00 12.40C383.00 12.24 382.97 12.18 382.80 12.18L381.81 12.18C381.78 12.18 381.78 11.76 381.78 11.31C381.78 9.56 381.86 5.96 381.86 5.92C381.88 5.18 381.88 3.75 381.98 3.75L383.59 3.75C384.30 3.75 385.13 3.78 385.13 3.85C385.13 3.99 385.08 4.90 385.08 4.97C385.08 5.12 385.15 5.17 385.34 5.17C385.53 5.17 385.60 5.17 385.60 5.03C385.60 3.93 385.66 3.40 385.66 3.14C385.66 2.94 385.57 2.94 385.38 2.94C385.22 2.94 385.17 2.98 385.15 3.16C385.15 3.23 384.51 3.28 383.67 3.28L378.67 3.28C378.01 3.28 377.20 3.28 377.20 3.21L377.20 3.07C377.20 2.94 377.08 2.94 376.98 2.94C376.75 2.94 376.73 3.00 376.71 3.19C376.66 3.89 376.49 4.97 376.49 5.01ZM393.68 6.27C393.68 6.40 393.88 6.57 393.95 6.57C394.09 6.57 395.44 5.25 395.44 4.23C395.44 3.86 394.84 2.98 394.69 2.98C394.45 2.98 393.99 3.60 393.99 3.91C393.99 4.31 394.66 4.68 394.66 5.00C394.66 5.43 393.68 6.22 393.68 6.27ZM396.27 6.27C396.27 6.40 396.47 6.57 396.54 6.57C396.68 6.57 398.03 5.25 398.03 4.23C398.03 3.86 397.43 2.98 397.28 2.98C397.04 2.98 396.58 3.60 396.58 3.91C396.58 4.31 397.25 4.68 397.25 5.00C397.25 5.43 396.27 6.22 396.27 6.27Z"></path></g></svg>