<svg data-v-423bf9ae="" xmlns="http://www.w3.org/2000/svg" viewBox="0 0 355.3714449318099 60" class="font"><!----><!----><!----><g data-v-423bf9ae="" id="a554496d-18fb-4a2b-a5a8-7228700f206f" fill="white" transform="matrix(4.285714577655423,0,0,4.285714577655423,-0.30000748494504137,-13.457143985008798)"><path d="M1.20 3.65L1.20 3.65L4.16 3.70L4.16 3.70Q6.45 3.70 7.52 3.53L7.52 3.53L7.52 3.53Q7.67 3.82 7.67 4.20L7.67 4.20L7.67 4.20Q7.67 4.58 7.34 4.88L7.34 4.88L7.34 4.88Q7 5.18 6.52 5.18L6.52 5.18L4.91 5.00L4.91 5.00Q4.91 5.10 4.84 5.87L4.84 5.87L4.84 5.87Q4.65 7.76 4.65 9.66L4.65 9.66L4.65 9.66Q4.65 11.56 4.94 13.47L4.94 13.47L4.94 13.47Q4.48 13.64 3.98 13.64L3.98 13.64L3.98 13.64Q3.47 13.64 3.11 13.35L3.11 13.35L3.11 13.35Q2.74 13.06 2.74 12.48L2.74 12.48L2.74 12.48Q2.74 11.90 2.88 10.43L2.88 10.43L2.88 10.43Q3.02 8.96 3.02 7.57L3.02 7.57L3.02 7.57Q3.02 6.17 2.88 4.97L2.88 4.97L2.88 4.97Q1.19 5.05 0.24 5.45L0.24 5.45L0.24 5.45Q0.07 5.12 0.07 4.73L0.07 4.73L0.07 4.73Q0.07 4.33 0.39 3.99L0.39 3.99L0.39 3.99Q0.71 3.65 1.20 3.65ZM10.51 13.47L10.51 13.47Q10.08 13.64 9.59 13.64L9.59 13.64L9.59 13.64Q9.10 13.64 8.80 13.41L8.80 13.41L8.80 13.41Q8.50 13.17 8.50 12.76L8.50 12.76L8.50 12.76Q8.50 12.35 8.62 11.26L8.62 11.26L8.62 11.26Q8.75 10.16 8.75 9.14L8.75 9.14L8.75 9.14Q8.75 8.11 8.43 6.72L8.43 6.72L8.43 6.72Q8.88 6.55 9.31 6.55L9.31 6.55L9.31 6.55Q9.74 6.55 10.06 6.85L10.06 6.85L10.06 6.85Q10.37 7.14 10.37 7.63L10.37 7.63L10.37 7.63Q10.37 7.88 10.29 8.38L10.29 8.38L10.29 8.38Q10.21 8.88 10.19 9.13L10.19 9.13L10.19 9.13Q10.74 7.88 11.49 7.18L11.49 7.18L11.49 7.18Q12.24 6.47 12.98 6.47L12.98 6.47L12.98 6.47Q13.50 6.47 13.80 6.83L13.80 6.83L13.80 6.83Q14.11 7.20 14.11 7.75L14.11 7.75L14.11 7.75Q14.11 8.30 13.83 8.64L13.83 8.64L13.83 8.64Q13.55 8.99 13.14 8.99L13.14 8.99L13.14 8.99Q12.73 8.99 12.47 8.90L12.47 8.90L12.47 8.90Q12.52 8.74 12.52 8.60L12.52 8.60L12.52 8.60Q12.52 8.02 12.11 8.02L12.11 8.02L12.11 8.02Q11.49 8.02 10.96 9.26L10.96 9.26L10.96 9.26Q10.42 10.50 10.23 11.58L10.23 11.58L10.23 11.58Q10.30 12.63 10.51 13.47L10.51 13.47ZM21.25 7.04L21.25 7.04L21.25 7.04Q20.87 8.65 20.87 10.27L20.87 10.27L20.87 10.27Q20.87 11.89 21.24 13.47L21.24 13.47L21.24 13.47Q20.73 13.64 20.20 13.64L20.20 13.64L20.20 13.64Q19.67 13.64 19.46 13.32L19.46 13.32L19.46 13.32Q19.25 13.01 19.25 12.41L19.25 12.41L19.25 12.41Q19.25 11.82 19.43 10.78L19.43 10.78L19.43 10.78Q18.44 12.91 17.51 13.47L17.51 13.47L17.51 13.47Q17.09 13.72 16.65 13.72L16.65 13.72L16.65 13.72Q15.58 13.72 14.99 12.93L14.99 12.93L14.99 12.93Q14.41 12.14 14.41 10.96L14.41 10.96L14.41 10.96Q14.41 9.17 15.40 7.82L15.40 7.82L15.40 7.82Q16.39 6.47 17.98 6.47L17.98 6.47L17.98 6.47Q19.57 6.47 21.25 7.04ZM19.42 7.88L19.42 7.88L19.42 7.88Q18.68 7.66 18.16 7.66L18.16 7.66L18.16 7.66Q17.11 7.66 16.59 8.12L16.59 8.12L16.59 8.12Q16.11 9.30 16.11 10.51L16.11 10.51L16.11 10.51Q16.11 11.16 16.32 11.82L16.32 11.82L16.32 11.82Q16.52 12.47 16.94 12.47L16.94 12.47L16.94 12.47Q17.43 12.47 18.20 11.03L18.20 11.03L18.20 11.03Q18.97 9.59 19.42 7.88ZM27.96 11.42L27.96 11.42L27.96 11.42Q27.47 12.38 26.73 13.05L26.73 13.05L26.73 13.05Q25.98 13.72 25.24 13.72L25.24 13.72L25.24 13.72Q24.50 13.72 24.10 13.21L24.10 13.21L24.10 13.21Q23.70 12.70 23.53 11.89L23.53 11.89L23.53 11.89Q23.37 11.09 23.23 10.23L23.23 10.23L23.23 10.23Q23.10 9.38 22.78 8.57L22.78 8.57L22.78 8.57Q22.46 7.76 21.90 7.35L21.90 7.35L21.90 7.35Q22.08 7.01 22.44 6.78L22.44 6.78L22.44 6.78Q22.81 6.55 23.23 6.55L23.23 6.55L23.23 6.55Q23.88 6.55 24.29 7.40L24.29 7.40L24.29 7.40Q24.70 8.25 24.82 9.27L24.82 9.27L24.82 9.27Q24.93 10.29 25.08 11.25L25.08 11.25L25.08 11.25Q25.23 12.21 25.42 12.35L25.42 12.35L25.42 12.35Q25.90 12.32 26.26 11.74L26.26 11.74L26.26 11.74Q26.61 11.16 26.78 10.33L26.78 10.33L26.78 10.33Q27.09 8.82 27.09 7.97L27.09 7.97L27.09 7.97Q27.09 7.11 27.01 6.65L27.01 6.65L27.01 6.65Q27.50 6.55 27.85 6.55L27.85 6.55L27.85 6.55Q29.05 6.55 29.05 7.70L29.05 7.70L29.05 7.70Q29.05 8.43 28.75 9.44L28.75 9.44L28.75 9.44Q28.45 10.46 27.96 11.42ZM31.18 10.46L31.18 10.46L31.18 10.46Q31.18 11.47 31.50 12.05L31.50 12.05L31.50 12.05Q31.82 12.63 32.58 12.63L32.58 12.63L32.58 12.63Q33.33 12.63 33.76 12.12L33.76 12.12L33.76 12.12Q34.19 11.61 34.19 10.88L34.19 10.88L34.19 10.88Q34.66 10.88 35.01 11.12L35.01 11.12L35.01 11.12Q35.36 11.35 35.36 11.77L35.36 11.77L35.36 11.77Q35.36 12.64 34.44 13.22L34.44 13.22L34.44 13.22Q33.52 13.80 32.49 13.80L32.49 13.80L32.49 13.80Q30.90 13.80 30.18 12.94L30.18 12.94L30.18 12.94Q29.47 12.08 29.47 10.39L29.47 10.39L29.47 10.39Q29.47 8.69 30.43 7.54L30.43 7.54L30.43 7.54Q31.39 6.38 32.98 6.38L32.98 6.38L32.98 6.38Q34.08 6.38 34.74 6.88L34.74 6.88L34.74 6.88Q35.41 7.38 35.41 8.42L35.41 8.42L35.41 8.42Q35.41 9.46 34.46 9.99L34.46 9.99L34.46 9.99Q33.52 10.51 32.16 10.51L32.16 10.51L32.16 10.51Q31.68 10.51 31.18 10.46ZM31.19 9.35L31.19 9.35L31.19 9.35Q31.61 9.44 32.07 9.44L32.07 9.44L32.07 9.44Q33.08 9.44 33.77 9.06L33.77 9.06L33.77 9.06Q33.85 8.72 33.85 8.53L33.85 8.53L33.85 8.53Q33.85 8.04 33.50 7.78L33.50 7.78L33.50 7.78Q33.15 7.53 32.54 7.53L32.54 7.53L32.54 7.53Q31.93 7.53 31.44 7.92L31.44 7.92L31.44 7.92Q31.19 8.65 31.19 9.35ZM36.88 3.30L36.88 3.30L36.88 3.30Q37.32 3.14 37.80 3.14L37.80 3.14L37.80 3.14Q38.28 3.14 38.59 3.45L38.59 3.45L38.59 3.45Q38.91 3.77 38.91 4.31L38.91 4.31L38.91 4.31Q38.91 4.84 38.76 6.46L38.76 6.46L38.76 6.46Q38.61 8.08 38.61 9.00L38.61 9.00L38.61 9.00Q38.61 11.28 38.93 13.47L38.93 13.47L38.93 13.47Q38.49 13.64 37.98 13.64L37.98 13.64L37.98 13.64Q36.90 13.64 36.90 12.59L36.90 12.59L36.90 12.59Q36.90 12.08 37.06 10.61L37.06 10.61L37.06 10.61Q37.21 9.13 37.21 8.23L37.21 8.23L37.21 8.23Q37.21 5.25 36.88 3.30ZM44.63 4.14L44.63 4.14L44.63 4.14Q46.65 3.61 48.15 3.61L48.15 3.61L48.15 3.61Q51.35 3.61 51.35 5.84L51.35 5.84L51.35 5.84Q51.35 7.20 50.08 7.91L50.08 7.91L50.08 7.91Q50.93 8.12 51.49 8.71L51.49 8.71L51.49 8.71Q52.05 9.31 52.05 10.21L52.05 10.21L52.05 10.21Q52.05 11.89 50.81 12.80L50.81 12.80L50.81 12.80Q49.56 13.72 47.73 13.72L47.73 13.72L47.73 13.72Q45.89 13.72 44.55 12.99L44.55 12.99L44.55 12.99Q44.98 11.48 44.98 8.91L44.98 8.91L44.98 8.91Q44.98 6.34 44.63 4.14ZM46.75 12.21L46.75 12.21L46.75 12.21Q47.36 12.40 47.98 12.40L47.98 12.40L47.98 12.40Q48.94 12.40 49.57 11.92L49.57 11.92L49.57 11.92Q50.20 11.44 50.20 10.56L50.20 10.56L50.20 10.56Q50.20 8.88 48.38 8.88L48.38 8.88L48.38 8.88Q47.52 8.88 46.62 9.24L46.62 9.24L46.62 9.24Q46.62 10.65 46.75 12.21ZM46.61 8.01L46.61 8.01L46.61 8.01Q46.80 7.97 47.19 7.91L47.19 7.91L47.19 7.91Q47.57 7.85 47.78 7.81L47.78 7.81L47.78 7.81Q47.99 7.77 48.31 7.69L48.31 7.69L48.31 7.69Q48.62 7.60 48.80 7.48L48.80 7.48L48.80 7.48Q48.97 7.36 49.15 7.18L49.15 7.18L49.15 7.18Q49.50 6.83 49.50 6.16L49.50 6.16L49.50 6.16Q49.50 4.86 47.95 4.86L47.95 4.86L47.95 4.86Q47.45 4.86 46.72 5.03L46.72 5.03L46.72 5.03Q46.61 7.90 46.61 8.01ZM53.49 12.21L53.49 12.21L53.63 9.30L53.63 9.30Q53.63 7.94 53.24 6.72L53.24 6.72L53.24 6.72Q53.63 6.55 54.21 6.55L54.21 6.55L54.21 6.55Q55.33 6.55 55.33 7.80L55.33 7.80L55.33 7.80Q55.33 8.50 55.17 9.77L55.17 9.77L55.17 9.77Q55.02 11.03 55.02 11.61L55.02 11.61L55.02 11.61Q55.02 12.31 55.65 12.31L55.65 12.31L55.65 12.31Q56.03 12.31 56.54 11.67L56.54 11.67L56.54 11.67Q57.05 11.03 57.42 10.24L57.42 10.24L57.42 10.24Q57.79 9.45 57.86 8.95L57.86 8.95L57.86 8.95Q57.78 7.41 57.62 6.72L57.62 6.72L57.62 6.72Q58.07 6.55 58.54 6.55L58.54 6.55L58.54 6.55Q59.01 6.55 59.32 6.85L59.32 6.85L59.32 6.85Q59.64 7.14 59.64 7.57L59.64 7.57L59.64 7.57Q59.64 8.01 59.51 9.02L59.51 9.02L59.51 9.02Q59.39 10.02 59.39 11.12L59.39 11.12L59.39 11.12Q59.39 12.22 59.64 13.47L59.64 13.47L59.64 13.47Q59.09 13.64 58.66 13.64L58.66 13.64L58.66 13.64Q57.79 13.64 57.79 12.49L57.79 12.49L57.79 12.49Q57.79 11.98 57.90 11.09L57.90 11.09L57.90 11.09Q57.34 12.28 56.54 13.00L56.54 13.00L56.54 13.00Q55.73 13.72 54.91 13.72L54.91 13.72L54.91 13.72Q53.49 13.72 53.49 12.21ZM65.51 3.30L65.51 3.30L65.51 3.30Q65.95 3.14 66.43 3.14L66.43 3.14L66.43 3.14Q66.91 3.14 67.21 3.45L67.21 3.45L67.21 3.45Q67.52 3.77 67.52 4.24L67.52 4.24L67.52 4.24Q67.52 4.70 67.38 6.45L67.38 6.45L67.38 6.45Q67.24 8.19 67.24 9.88L67.24 9.88L67.24 9.88Q67.24 11.56 67.58 13.47L67.58 13.47L67.58 13.47Q67.07 13.64 66.53 13.64L66.53 13.64L66.53 13.64Q65.60 13.64 65.60 12.33L65.60 12.33L65.60 12.33Q65.60 11.90 65.79 10.78L65.79 10.78L65.79 10.78Q65.20 12.03 64.74 12.63L64.74 12.63L64.74 12.63Q64.29 13.23 63.86 13.48L63.86 13.48L63.86 13.48Q63.43 13.72 62.96 13.72L62.96 13.72L62.96 13.72Q61.89 13.72 61.33 12.94L61.33 12.94L61.33 12.94Q60.76 12.15 60.76 11.00L60.76 11.00L60.76 11.00Q60.76 9.86 61.17 8.84L61.17 8.84L61.17 8.84Q61.59 7.83 62.42 7.15L62.42 7.15L62.42 7.15Q63.25 6.47 64.19 6.47L64.19 6.47L64.19 6.47Q65.13 6.47 65.81 6.72L65.81 6.72L65.81 6.72Q65.79 4.91 65.51 3.30ZM65.81 7.91L65.81 7.91L65.81 7.91Q65.13 7.66 64.33 7.66L64.33 7.66L64.33 7.66Q63.53 7.66 62.96 8.12L62.96 8.12L62.96 8.12Q62.48 9.25 62.48 10.65L62.48 10.65L62.48 10.65Q62.48 11.30 62.66 11.89L62.66 11.89L62.66 11.89Q62.85 12.47 63.27 12.47L63.27 12.47L63.27 12.47Q63.91 12.47 64.73 11.03L64.73 11.03L64.73 11.03Q65.55 9.59 65.81 7.91ZM73.32 3.30L73.32 3.30L73.32 3.30Q73.77 3.14 74.24 3.14L74.24 3.14L74.24 3.14Q74.72 3.14 75.03 3.45L75.03 3.45L75.03 3.45Q75.33 3.77 75.33 4.24L75.33 4.24L75.33 4.24Q75.33 4.70 75.19 6.45L75.19 6.45L75.19 6.45Q75.05 8.19 75.05 9.88L75.05 9.88L75.05 9.88Q75.05 11.56 75.39 13.47L75.39 13.47L75.39 13.47Q74.89 13.64 74.34 13.64L74.34 13.64L74.34 13.64Q73.42 13.64 73.42 12.33L73.42 12.33L73.42 12.33Q73.42 11.90 73.60 10.78L73.60 10.78L73.60 10.78Q73.01 12.03 72.56 12.63L72.56 12.63L72.56 12.63Q72.10 13.23 71.67 13.48L71.67 13.48L71.67 13.48Q71.25 13.72 70.77 13.72L70.77 13.72L70.77 13.72Q69.71 13.72 69.14 12.94L69.14 12.94L69.14 12.94Q68.57 12.15 68.57 11.00L68.57 11.00L68.57 11.00Q68.57 9.86 68.98 8.84L68.98 8.84L68.98 8.84Q69.40 7.83 70.23 7.15L70.23 7.15L70.23 7.15Q71.06 6.47 72.00 6.47L72.00 6.47L72.00 6.47Q72.94 6.47 73.63 6.72L73.63 6.72L73.63 6.72Q73.60 4.91 73.32 3.30ZM73.63 7.91L73.63 7.91L73.63 7.91Q72.94 7.66 72.14 7.66L72.14 7.66L72.14 7.66Q71.34 7.66 70.77 8.12L70.77 8.12L70.77 8.12Q70.29 9.25 70.29 10.65L70.29 10.65L70.29 10.65Q70.29 11.30 70.48 11.89L70.48 11.89L70.48 11.89Q70.66 12.47 71.08 12.47L71.08 12.47L71.08 12.47Q71.72 12.47 72.54 11.03L72.54 11.03L72.54 11.03Q73.36 9.59 73.63 7.91ZM76.85 11.31L76.85 11.31L76.99 9.30L76.99 9.30Q76.99 7.94 76.59 6.72L76.59 6.72L76.59 6.72Q76.99 6.55 77.56 6.55L77.56 6.55L77.56 6.55Q78.68 6.55 78.68 7.80L78.68 7.80L78.68 7.80Q78.68 8.36 78.53 9.38L78.53 9.38L78.53 9.38Q78.37 10.40 78.37 10.79L78.37 10.79L78.37 10.79Q78.37 11.17 78.39 11.35L78.39 11.35L78.39 11.35Q78.40 11.52 78.46 11.76L78.46 11.76L78.46 11.76Q78.54 12.24 79.01 12.24L79.01 12.24L79.01 12.24Q79.48 12.24 80.02 11.49L80.02 11.49L80.02 11.49Q80.56 10.74 80.89 9.83L80.89 9.83L80.89 9.83Q81.21 8.92 81.21 8.39L81.21 8.39L81.21 8.39Q81.14 7.28 80.98 6.72L80.98 6.72L80.98 6.72Q81.42 6.55 81.89 6.55L81.89 6.55L81.89 6.55Q82.36 6.55 82.68 6.85L82.68 6.85L82.68 6.85Q82.99 7.14 82.99 7.63L82.99 7.63L82.99 7.63Q82.99 15.27 80.19 16.80L80.19 16.80L80.19 16.80Q79.56 17.14 78.76 17.14L78.76 17.14L78.76 17.14Q77.97 17.14 77.37 16.72L77.37 16.72L77.37 16.72Q76.78 16.30 76.78 15.54L76.78 15.54L76.78 15.54Q76.78 15.04 77.15 14.69L77.15 14.69L77.15 14.69Q77.53 14.35 78.05 14.35L78.05 14.35L78.05 14.35Q78.16 14.35 78.33 14.38L78.33 14.38L78.33 14.38Q78.29 14.56 78.29 14.70L78.29 14.70L78.29 14.70Q78.29 15.93 79.14 15.93L79.14 15.93L79.14 15.93Q79.66 15.93 80.08 15.37L80.08 15.37L80.08 15.37Q80.50 14.81 80.75 14.00L80.75 14.00L80.75 14.00Q81.24 12.35 81.24 11.00L81.24 11.00L81.24 11.00Q80.82 12.14 80.10 12.83L80.10 12.83L80.10 12.83Q79.38 13.52 78.54 13.52L78.54 13.52L78.54 13.52Q76.85 13.52 76.85 11.31Z"></path></g><!----><!----></svg>